<svg width="60" height="60" viewBox="0 0 60 60" fill="none" xmlns="http://www.w3.org/2000/svg">
<path d="M17.5752 0.210041C14.3832 0.360541 12.2034 0.87004 10.2977 1.61854C8.32568 2.38729 6.65393 3.41853 4.99069 5.08778C3.32769 6.75702 2.3032 8.42977 1.5402 10.4053C0.801702 12.3148 0.301203 14.4965 0.160203 17.6902C0.0192039 20.884 -0.012046 21.9107 0.00370396 30.0577C0.0192039 38.2042 0.0552038 39.2254 0.209953 42.4259C0.362453 45.6172 0.869951 47.7964 1.6187 49.7026C2.3887 51.6749 3.41869 53.3459 5.08869 55.0096C6.75843 56.6734 8.42993 57.6954 10.4099 58.4596C12.3179 59.1971 14.5002 59.6999 17.6934 59.8396C20.8866 59.9796 21.9144 60.0121 30.0589 59.9964C38.2033 59.9809 39.2288 59.9446 42.4283 59.7929C45.6283 59.6411 47.7958 59.1299 49.7028 58.3846C51.6751 57.6131 53.3473 56.5846 55.0098 54.9144C56.6723 53.2439 57.696 51.5699 58.4585 49.5934C59.1978 47.6854 59.7 45.5034 59.8385 42.3124C59.9785 39.1102 60.0115 38.0879 59.996 29.9425C59.9803 21.7967 59.9435 20.7755 59.7918 17.5762C59.64 14.377 59.1318 12.2045 58.3835 10.297C57.6125 8.32477 56.5835 6.65502 54.9145 4.99003C53.2453 3.32503 51.5698 2.30204 49.5943 1.54129C47.6848 0.80254 45.5041 0.299291 42.3108 0.161291C39.1176 0.0232919 38.0898 -0.012458 29.9424 0.00354196C21.7949 0.0190419 20.7749 0.0540418 17.5752 0.210041ZM17.9257 54.4426C15.0007 54.3154 13.4124 53.8294 12.3539 53.4226C10.9524 52.8826 9.95392 52.2299 8.89918 51.1851C7.84418 50.1406 7.19643 49.1387 6.64918 47.7402C6.23819 46.6817 5.74319 45.0952 5.60644 42.1702C5.45769 39.0089 5.42644 38.0597 5.40894 30.0502C5.39144 22.041 5.42219 21.0927 5.56069 17.9302C5.68569 15.0077 6.17469 13.4178 6.58068 12.3598C7.12068 10.9565 7.77118 9.95976 8.81818 8.90577C9.86517 7.85152 10.8642 7.20227 12.2639 6.65502C13.3214 6.24227 14.9077 5.75153 17.8314 5.61228C20.9951 5.46228 21.9431 5.43228 29.9514 5.41478C37.9596 5.39728 38.9101 5.42728 42.0751 5.56678C44.9976 5.69378 46.5883 6.17802 47.6451 6.58677C49.0471 7.12677 50.0451 7.77527 51.099 8.82427C52.1533 9.87276 52.803 10.8683 53.3503 12.271C53.7635 13.3253 54.2545 14.911 54.3925 17.8367C54.543 21.0005 54.5773 21.9492 54.5915 29.9567C54.606 37.9642 54.5778 38.9152 54.439 42.0767C54.3115 45.0017 53.8265 46.5904 53.419 47.6502C52.879 49.0512 52.2283 50.0501 51.1805 51.1036C50.1331 52.1574 49.1353 52.8064 47.7348 53.3536C46.6788 53.7659 45.0906 54.2579 42.1693 54.3971C39.0053 54.5459 38.0573 54.5771 30.0461 54.5946C22.0349 54.6121 21.0894 54.5796 17.9257 54.4426ZM42.3823 13.966C42.3835 14.6781 42.5958 15.3738 42.9925 15.9652C43.3891 16.5566 43.9522 17.0171 44.6105 17.2884C45.2689 17.5597 45.9929 17.6297 46.6911 17.4895C47.3892 17.3493 48.0301 17.0052 48.5327 16.5008C49.0352 15.9963 49.3769 15.3542 49.5145 14.6555C49.652 13.9569 49.5793 13.2331 49.3055 12.5758C49.0317 11.9184 48.5691 11.3571 47.9763 10.9627C47.3834 10.5683 46.6869 10.3585 45.9748 10.36C45.0203 10.362 44.1056 10.743 43.432 11.4192C42.7583 12.0954 42.3807 13.0115 42.3823 13.966ZM14.5962 30.03C14.6129 38.5379 21.5226 45.4192 30.0286 45.4032C38.5351 45.3869 45.4211 38.4779 45.4051 29.97C45.3888 21.462 38.4776 14.5788 29.9701 14.5955C21.4626 14.6123 14.5802 21.523 14.5962 30.03ZM19.9999 30.0192C19.996 28.0414 20.5787 26.1069 21.6742 24.4602C22.7698 22.8136 24.329 21.5288 26.1547 20.7683C27.9805 20.0078 29.9907 19.8058 31.9313 20.1878C33.8718 20.5698 35.6555 21.5187 37.0568 22.9144C38.4581 24.3101 39.4141 26.09 39.8038 28.0291C40.1935 29.9681 39.9995 31.9791 39.2462 33.8079C38.493 35.6366 37.2144 37.2009 35.5721 38.303C33.9299 39.4051 31.9977 39.9955 30.0199 39.9994C28.7066 40.0022 27.4056 39.7462 26.1913 39.2461C24.977 38.746 23.873 38.0116 22.9426 37.0849C22.0121 36.1581 21.2733 35.0571 20.7684 33.8447C20.2635 32.6324 20.0024 31.3325 19.9999 30.0192Z" fill="#FFFEE2"/>
</svg>
