<svg width="60" height="60" viewBox="0 0 60 60" fill="none" xmlns="http://www.w3.org/2000/svg">
<path d="M43.5374 35.955C42.7949 35.5825 39.1424 33.7875 38.4624 33.5375C37.7799 33.29 37.2849 33.1675 36.7874 33.9125C36.2949 34.655 34.8699 36.3275 34.4374 36.8225C34.0049 37.32 33.5699 37.38 32.8274 37.01C32.0849 36.635 29.6899 35.8525 26.8525 33.3225C24.645 31.3526 23.1525 28.9201 22.72 28.1751C22.2875 27.4326 22.675 27.0301 23.045 26.6601C23.38 26.3276 23.79 25.7926 24.16 25.3601C24.5325 24.9251 24.655 24.6151 24.905 24.1176C25.1525 23.6226 25.03 23.1901 24.8425 22.8176C24.655 22.4451 23.17 18.7876 22.5525 17.3001C21.9475 15.8526 21.335 16.0501 20.88 16.0251C20.4475 16.0051 19.9525 16.0001 19.455 16.0001C18.96 16.0001 18.155 16.1851 17.475 16.9301C16.795 17.6726 14.875 19.4701 14.875 23.1276C14.875 26.7826 17.5375 30.3151 17.9075 30.8126C18.28 31.3076 23.1475 38.8125 30.5999 42.03C32.3724 42.795 33.7549 43.2525 34.8349 43.5925C36.6149 44.16 38.2349 44.08 39.5124 43.8875C40.9399 43.675 43.9074 42.09 44.5274 40.355C45.1474 38.62 45.1474 37.1325 44.9599 36.8225C44.7749 36.5125 44.2824 36.3275 43.5374 35.955ZM29.9824 54.4625H29.9724C25.5469 54.4629 21.2027 53.273 17.395 51.0175L16.4925 50.4825L7.13999 52.9375L9.63498 43.8175L9.04748 42.8825C6.57359 38.9432 5.26484 34.3843 5.27249 29.7326C5.27499 16.1076 16.3625 5.02259 29.9924 5.02259C36.5924 5.02259 42.7974 7.59759 47.4624 12.2676C49.7641 14.5591 51.5885 17.2844 52.8299 20.2857C54.0714 23.287 54.7053 26.5047 54.6949 29.7526C54.6874 43.3775 43.6024 54.4625 29.9824 54.4625ZM51.0149 8.72009C48.2604 5.9474 44.983 3.74894 41.3726 2.2521C37.7623 0.755261 33.8908 -0.0101906 29.9824 0.000102444C13.595 0.000102444 0.2575 13.3376 0.25 29.7301C0.25 34.97 1.6175 40.085 4.21999 44.5925L0 60L15.7625 55.865C20.1214 58.2398 25.006 59.4844 29.9699 59.485H29.9824C46.3674 59.485 59.7074 46.1475 59.7149 29.7526C59.727 25.8457 58.9643 21.9753 57.471 18.3652C55.9776 14.755 53.7833 11.4768 51.0149 8.72009Z" fill="#FFFEE2"/>
</svg>
